<svg width="276" height="50" viewBox="0 0 276 50" fill="none" xmlns="http://www.w3.org/2000/svg">
<path d="M15.4539 4.88867C19.6122 4.88867 23.1963 6.26008 26.2064 9.00291L22.343 13.2139C21.1948 12.3104 20.1242 11.6651 19.1312 11.2778C18.1692 10.8583 17.052 10.6486 15.7797 10.6486C13.3903 10.6486 11.4818 11.6328 10.0543 13.6012C8.62687 15.5373 7.91313 18.4898 7.91313 22.4589C7.91313 26.7506 8.45619 29.7999 9.54231 31.607C10.6284 33.3817 12.3197 34.2691 14.616 34.2691C16.2297 34.2691 17.6882 33.898 18.9915 33.1559V25.5566H14.8022L14.0574 19.9419H26.3926V36.544C24.7169 37.6734 22.8705 38.5447 20.8534 39.1578C18.8364 39.7709 16.8193 40.0774 14.8022 40.0774C9.89918 40.0774 6.20638 38.5931 3.72383 35.6244C1.24128 32.6234 0 28.2349 0 22.4589C0 18.7803 0.667186 15.6179 2.00156 12.9719C3.36696 10.3259 5.21336 8.32527 7.54075 6.96999C9.89918 5.58245 12.5369 4.88867 15.4539 4.88867Z" fill="#141414"/>
<path d="M50.9946 31.8006C50.9946 32.7686 51.1187 33.4785 51.367 33.9303C51.6463 34.3821 52.0807 34.7209 52.6703 34.9468L51.1343 39.9322C49.6137 39.8032 48.3724 39.4643 47.4104 38.9158C46.4484 38.3349 45.7037 37.4314 45.1761 36.2052C43.5625 38.7867 41.0799 40.0774 37.7285 40.0774C35.277 40.0774 33.322 39.3353 31.8635 37.8509C30.405 36.3666 29.6757 34.4305 29.6757 32.0426C29.6757 29.2352 30.6687 27.0894 32.6548 25.605C34.6408 24.1207 37.5113 23.3785 41.2661 23.3785H43.7797V22.2652C43.7797 20.7486 43.4694 19.716 42.8487 19.1675C42.2281 18.5866 41.142 18.2962 39.5904 18.2962C38.7836 18.2962 37.8061 18.4253 36.6579 18.6834C35.5097 18.9093 34.3305 19.232 33.1202 19.6515L31.4445 14.6176C32.9961 14.0045 34.5787 13.5366 36.1924 13.2139C37.8371 12.8913 39.3577 12.7299 40.7541 12.7299C44.2917 12.7299 46.8829 13.4882 48.5276 15.0048C50.1723 16.5215 50.9946 18.7964 50.9946 21.8296V31.8006ZM39.8697 34.6079C41.5454 34.6079 42.8487 33.7851 43.7797 32.1394V27.5895H41.9643C40.2886 27.5895 39.0318 27.8961 38.194 28.5092C37.3871 29.1223 36.9837 30.0742 36.9837 31.365C36.9837 32.3975 37.232 33.2043 37.7285 33.7851C38.256 34.3337 38.9698 34.6079 39.8697 34.6079Z" fill="#141414"/>
<path d="M70.8636 12.7299C73.8117 12.7299 76.077 13.94 77.6596 16.3601C79.2422 18.748 80.0336 22.1039 80.0336 26.4279C80.0336 29.0739 79.6301 31.4295 78.8233 33.4947C78.0475 35.5599 76.9149 37.1733 75.4253 38.3349C73.9668 39.4966 72.229 40.0774 70.212 40.0774C68.8776 40.0774 67.6518 39.787 66.5347 39.2062C65.4486 38.6254 64.5176 37.8187 63.7418 36.7861L63.3694 39.2546H56.8527V3.33979L64.2073 2.51694V16.1665C64.9521 15.1016 65.8985 14.2627 67.0467 13.6496C68.2259 13.0365 69.4982 12.7299 70.8636 12.7299ZM68.0708 34.5111C70.9567 34.5111 72.3997 31.8167 72.3997 26.4279C72.3997 23.3624 72.0584 21.2488 71.3757 20.0871C70.693 18.9255 69.6999 18.3446 68.3966 18.3446C66.7519 18.3446 65.3555 19.345 64.2073 21.3456V32.0426C64.6728 32.817 65.2314 33.4301 65.883 33.8819C66.5657 34.3014 67.295 34.5111 68.0708 34.5111Z" fill="#141414"/>
<path d="M98.0327 12.8267C98.9326 12.8267 99.7549 12.9397 100.5 13.1655L99.336 20.5712C98.405 20.3453 97.6603 20.2323 97.1017 20.2323C95.6432 20.2323 94.5261 20.7648 93.7503 21.8296C93.0055 22.8622 92.4159 24.4272 91.9814 26.5247V39.2546H84.6269V13.5528H91.0505L91.6556 18.5382C92.2142 16.7635 93.0521 15.3759 94.1692 14.3756C95.3174 13.343 96.6052 12.8267 98.0327 12.8267Z" fill="#141414"/>
<path d="M110.664 13.5528V39.2546H103.31V13.5528H110.664ZM106.94 0C108.213 0 109.252 0.419491 110.059 1.25847C110.897 2.06518 111.316 3.09777 111.316 4.35625C111.316 5.61471 110.897 6.66344 110.059 7.50242C109.252 8.30913 108.213 8.71249 106.94 8.71249C105.668 8.71249 104.629 8.30913 103.822 7.50242C103.015 6.66344 102.611 5.61471 102.611 4.35625C102.611 3.09777 103.015 2.06518 103.822 1.25847C104.629 0.419491 105.668 0 106.94 0Z" fill="#141414"/>
<path d="M137.998 25.8954C137.998 26.9603 137.952 27.88 137.859 28.6544H122.544C122.793 30.8164 123.382 32.333 124.313 33.2043C125.244 34.0755 126.532 34.5111 128.177 34.5111C129.17 34.5111 130.132 34.3337 131.063 33.9787C131.994 33.5915 133.002 33.0106 134.088 32.2362L137.114 36.4956C134.228 38.8835 131.016 40.0774 127.479 40.0774C123.475 40.0774 120.403 38.8512 118.262 36.3988C116.121 33.9464 115.05 30.655 115.05 26.5247C115.05 23.9109 115.5 21.5715 116.4 19.5063C117.3 17.4088 118.619 15.7631 120.357 14.5692C122.095 13.343 124.174 12.7299 126.594 12.7299C130.163 12.7299 132.956 13.8916 134.973 16.2149C136.99 18.5382 137.998 21.7651 137.998 25.8954ZM130.783 23.7173C130.721 19.7806 129.387 17.8122 126.78 17.8122C125.508 17.8122 124.515 18.2962 123.801 19.2643C123.119 20.2323 122.7 21.8296 122.544 24.0561H130.783V23.7173Z" fill="#141414"/>
<path d="M148.693 40.0774C146.552 40.0774 144.876 39.4482 143.666 38.1897C142.487 36.899 141.897 35.0758 141.897 32.7202V3.33979L149.252 2.51694V32.4298C149.252 33.4947 149.671 34.0271 150.508 34.0271C150.943 34.0271 151.346 33.9464 151.719 33.7851L153.162 39.2062C151.827 39.787 150.338 40.0774 148.693 40.0774Z" fill="#141414"/>
<path d="M167.134 39.2546V5.71152H186.359L185.567 11.3746H174.768V20.2807H184.171V25.9439H174.768V39.2546H167.134Z" fill="#141414"/>
<path d="M201.447 12.8267C202.347 12.8267 203.169 12.9397 203.914 13.1655L202.75 20.5712C201.819 20.3453 201.075 20.2323 200.516 20.2323C199.058 20.2323 197.94 20.7648 197.165 21.8296C196.42 22.8622 195.83 24.4272 195.396 26.5247V39.2546H188.041V13.5528H194.465L195.07 18.5382C195.629 16.7635 196.466 15.3759 197.584 14.3756C198.732 13.343 200.02 12.8267 201.447 12.8267Z" fill="#141414"/>
<path d="M224.731 31.8006C224.731 32.7686 224.855 33.4785 225.103 33.9303C225.382 34.3821 225.817 34.7209 226.407 34.9468L224.87 39.9322C223.35 39.8032 222.109 39.4643 221.147 38.9158C220.185 38.3349 219.44 37.4314 218.912 36.2052C217.299 38.7867 214.816 40.0774 211.465 40.0774C209.013 40.0774 207.058 39.3353 205.6 37.8509C204.141 36.3666 203.412 34.4305 203.412 32.0426C203.412 29.2352 204.405 27.0894 206.391 25.605C208.377 24.1207 211.247 23.3785 215.002 23.3785H217.516V22.2652C217.516 20.7486 217.206 19.716 216.585 19.1675C215.964 18.5866 214.878 18.2962 213.327 18.2962C212.52 18.2962 211.542 18.4253 210.394 18.6834C209.246 18.9093 208.067 19.232 206.856 19.6515L205.181 14.6176C206.732 14.0045 208.315 13.5366 209.929 13.2139C211.573 12.8913 213.094 12.7299 214.49 12.7299C218.028 12.7299 220.619 13.4882 222.264 15.0048C223.908 16.5215 224.731 18.7964 224.731 21.8296V31.8006ZM213.606 34.6079C215.282 34.6079 216.585 33.7851 217.516 32.1394V27.5895H215.701C214.025 27.5895 212.768 27.8961 211.93 28.5092C211.123 29.1223 210.72 30.0742 210.72 31.365C210.72 32.3975 210.968 33.2043 211.465 33.7851C211.992 34.3337 212.706 34.6079 213.606 34.6079Z" fill="#141414"/>
<path d="M252.896 15.0532C251.283 15.7309 248.909 16.0697 245.774 16.0697C247.388 16.7796 248.567 17.6509 249.312 18.6834C250.057 19.716 250.429 21.0552 250.429 22.7009C250.429 24.3466 250.01 25.8309 249.172 27.1539C248.335 28.4447 247.124 29.4611 245.542 30.2033C243.99 30.9455 242.159 31.3166 240.049 31.3166C239.056 31.3166 238.11 31.2197 237.21 31.0261C236.961 31.1552 236.76 31.365 236.604 31.6554C236.48 31.9135 236.418 32.1878 236.418 32.4782C236.418 32.9622 236.589 33.3495 236.93 33.6399C237.303 33.898 238.032 34.0271 239.118 34.0271H242.842C244.735 34.0271 246.395 34.3498 247.823 34.9952C249.25 35.6405 250.352 36.5279 251.127 37.6573C251.903 38.7867 252.291 40.0613 252.291 41.4811C252.291 44.1594 251.174 46.2407 248.94 47.7251C246.736 49.2417 243.54 50 239.351 50C236.341 50 233.967 49.6612 232.229 48.9835C230.491 48.3382 229.265 47.4185 228.552 46.2246C227.869 45.0307 227.528 43.5302 227.528 41.7231H234.137C234.137 42.4976 234.277 43.1107 234.556 43.5624C234.867 44.0142 235.41 44.353 236.186 44.5789C236.961 44.8048 238.079 44.9177 239.537 44.9177C241.554 44.9177 242.951 44.6596 243.726 44.1433C244.502 43.6592 244.89 42.9493 244.89 42.0135C244.89 41.2391 244.595 40.626 244.006 40.1743C243.416 39.7225 242.532 39.4966 241.352 39.4966H237.768C235.224 39.4966 233.315 39.0287 232.043 38.0929C230.802 37.1249 230.181 35.8987 230.181 34.4143C230.181 33.4785 230.445 32.575 230.972 31.7038C231.5 30.8003 232.214 30.0581 233.113 29.4773C231.562 28.606 230.429 27.5895 229.715 26.4279C229.033 25.2339 228.691 23.798 228.691 22.12C228.691 19.2481 229.684 16.9732 231.67 15.2953C233.656 13.585 236.279 12.7299 239.537 12.7299C242.02 12.7944 244.114 12.5363 245.821 11.9555C247.559 11.3746 249.343 10.5195 251.174 9.39013L252.896 15.0532ZM239.723 17.7638C238.575 17.7638 237.66 18.151 236.977 18.9255C236.325 19.6676 235.999 20.7002 235.999 22.0232C235.999 23.4108 236.325 24.4918 236.977 25.2662C237.66 26.0084 238.575 26.3795 239.723 26.3795C240.933 26.3795 241.849 26.0084 242.47 25.2662C243.121 24.524 243.447 23.4108 243.447 21.9264C243.447 19.1513 242.206 17.7638 239.723 17.7638Z" fill="#141414"/>
<path d="M274.324 31.8006C274.324 32.7686 274.448 33.4785 274.697 33.9303C274.976 34.3821 275.41 34.7209 276 34.9468L274.464 39.9322C272.943 39.8032 271.702 39.4643 270.74 38.9158C269.778 38.3349 269.033 37.4314 268.506 36.2052C266.892 38.7867 264.41 40.0774 261.058 40.0774C258.607 40.0774 256.652 39.3353 255.193 37.8509C253.735 36.3666 253.005 34.4305 253.005 32.0426C253.005 29.2352 253.998 27.0894 255.984 25.605C257.97 24.1207 260.841 23.3785 264.596 23.3785H267.109V22.2652C267.109 20.7486 266.799 19.716 266.178 19.1675C265.558 18.5866 264.472 18.2962 262.92 18.2962C262.113 18.2962 261.136 18.4253 259.988 18.6834C258.839 18.9093 257.66 19.232 256.45 19.6515L254.774 14.6176C256.326 14.0045 257.908 13.5366 259.522 13.2139C261.167 12.8913 262.687 12.7299 264.084 12.7299C267.621 12.7299 270.213 13.4882 271.857 15.0048C273.502 16.5215 274.324 18.7964 274.324 21.8296V31.8006ZM263.199 34.6079C264.875 34.6079 266.178 33.7851 267.109 32.1394V27.5895H265.294C263.618 27.5895 262.361 27.8961 261.524 28.5092C260.717 29.1223 260.313 30.0742 260.313 31.365C260.313 32.3975 260.562 33.2043 261.058 33.7851C261.586 34.3337 262.299 34.6079 263.199 34.6079Z" fill="#141414"/>
</svg>
